<?xml version="1.0" encoding="UTF-8" standalone="no"?>
<!DOCTYPE svg PUBLIC "-//W3C//DTD SVG 20010904//EN" "http://www.w3.org/TR/2001/REC-SVG-20010904/DTD/svg10.dtd">
<svg version="1.0" xmlns="http://www.w3.org/2000/svg" width="90.000000pt" height="79.000000pt" viewBox="0 0 900.000000 792.000000" preserveAspectRatio="xMidYMid meet"><script xmlns=""/>
<metadata>
Created by potrace 1.10, written by Peter Selinger 2001-2011
</metadata>
<g transform="translate(0.000000,792.000000) scale(0.100000,-0.100000)" fill="#fffff0" stroke="none">
<path d="M2393 7913 c13 -12 -16 -33 -47 -33 -17 -1 -49 -12 -71 -25 -22 -14 -49 -29 -60 -34 -52 -24 -139 -131 -184 -226 -5 -11 -21 -37 -35 -58 -14 -21 -26 -44 -26 -52 0 -8 -5 -17 -11 -20 -5 -4 -14 -17 -20 -28 -5 -12 -15 -31 -21 -42 -55 -85 -114 -188 -124 -217 -3 -10 -10 -18 -14 -18 -5 0 -13 -12 -19 -27 -6 -16 -24 -50 -41 -78 -17 -27 -37 -63 -46 -80 -21 -42 -36 -66 -60 -100 -11 -17 -32 -52 -45 -80 -13 -27 -27 -52 -30 -55 -4 -3 -19 -27 -33 -55 -15 -27 -36 -63 -47 -80 -10 -16 -23 -39 -29 -50 -13 -26 -61 -110 -89 -155 -11 -19 -25 -45 -30 -57 -5 -11 -15 -24 -20 -28 -6 -3 -11 -13 -11 -22 0 -8 -13 -32 -30 -53 -16 -21 -30 -45 -30 -53 0 -9 -5 -19 -11 -22 -5 -4 -15 -17 -20 -28 -5 -12 -18 -35 -29 -52 -11 -16 -24 -39 -30 -50 -5 -11 -14 -28 -20 -37 -5 -10 -15 -26 -20 -35 -6 -10 -15 -27 -20 -38 -6 -11 -19 -33 -30 -50 -11 -16 -23 -37 -27 -45 -3 -8 -18 -33 -32 -55 -32 -51 -68 -113 -84 -145 -6 -14 -15 -27 -19 -30 -4 -3 -12 -17 -18 -30 -5 -14 -19 -38 -30 -55 -11 -16 -31 -52 -46 -80 -30 -59 -40 -76 -77 -132 -15 -24 -27 -45 -27 -49 0 -3 -13 -26 -30 -51 -16 -24 -30 -48 -30 -54 0 -5 -14 -28 -30 -51 -17 -22 -30 -45 -30 -50 0 -4 -12 -27 -27 -51 -15 -23 -33 -53 -40 -66 -48 -87 -59 -107 -70 -119 -7 -7 -13 -19 -13 -26 0 -8 -7 -19 -15 -26 -8 -7 -15 -19 -15 -26 0 -8 -13 -33 -30 -56 -16 -22 -30 -47 -30 -55 0 -7 -4 -13 -9 -13 -5 0 -14 -12 -20 -27 -6 -16 -20 -41 -31 -58 -11 -16 -24 -39 -29 -50 -5 -11 -21 -37 -35 -58 -14 -21 -26 -44 -26 -52 0 -8 -5 -17 -11 -20 -5 -4 -15 -17 -20 -28 -5 -12 -18 -35 -29 -52 -11 -16 -24 -40 -29 -52 -5 -11 -15 -24 -20 -28 -6 -3 -11 -14 -11 -24 0 -10 -7 -24 -15 -31 -9 -7 -15 -29 -15 -51 0 -21 -4 -41 -10 -44 -13 -8 -13 -162 0 -170 6 -3 10 -23 10 -44 0 -22 6 -44 15 -51 8 -7 15 -21 15 -31 0 -10 5 -21 11 -24 5 -4 14 -17 20 -28 9 -23 14 -31 62 -105 15 -24 27 -47 27 -52 0 -5 6 -15 12 -22 7 -7 23 -33 36 -58 13 -25 32 -58 43 -75 10 -16 24 -42 30 -57 6 -16 15 -28 20 -28 5 0 9 -6 9 -13 0 -8 13 -33 30 -55 16 -23 30 -48 30 -55 0 -7 5 -18 11 -24 13 -13 33 -47 49 -83 6 -14 22 -39 36 -57 13 -17 24 -36 24 -42 0 -5 14 -30 30 -54 17 -25 30 -49 30 -54 0 -4 12 -26 27 -48 15 -22 37 -58 49 -80 46 -85 77 -141 87 -154 14 -16 34 -51 43 -71 15 -37 16 -38 65 -115 14 -22 29 -47 32 -55 4 -8 16 -28 26 -45 11 -16 30 -50 42 -75 13 -25 35 -63 50 -85 33 -50 76 -123 88 -152 5 -11 15 -24 20 -28 6 -3 11 -13 11 -22 0 -8 14 -32 30 -53 17 -21 30 -45 30 -53 0 -8 6 -20 14 -26 8 -7 17 -23 20 -36 4 -14 11 -25 16 -25 6 0 10 -5 10 -11 0 -6 14 -31 30 -56 17 -24 30 -49 30 -55 0 -6 6 -19 14 -27 7 -9 28 -43 46 -76 18 -33 39 -67 46 -76 8 -8 14 -23 14 -31 0 -9 7 -21 15 -28 8 -7 15 -16 15 -21 0 -4 12 -27 28 -51 47 -75 52 -82 63 -108 5 -13 14 -27 18 -30 4 -3 17 -25 30 -50 12 -25 31 -58 42 -75 10 -16 23 -39 29 -50 27 -53 62 -110 75 -125 8 -9 15 -24 15 -33 0 -9 5 -19 11 -22 5 -4 15 -17 20 -28 5 -12 18 -35 28 -52 11 -16 30 -50 42 -75 13 -25 34 -61 47 -80 13 -19 28 -44 33 -55 5 -11 18 -33 29 -50 11 -16 24 -39 30 -50 6 -11 21 -38 33 -60 13 -22 32 -56 43 -75 65 -116 95 -152 164 -196 72 -45 107 -61 153 -69 67 -12 4199 -17 4211 -5 5 5 25 10 43 10 67 0 195 85 251 167 20 30 42 63 48 74 7 12 17 26 23 32 6 6 11 17 11 24 0 6 12 29 26 50 14 21 30 47 35 58 5 11 18 34 28 50 20 31 44 72 77 135 11 19 22 38 27 41 7 5 31 48 89 159 12 25 29 49 35 53 7 4 13 17 13 27 0 10 5 22 11 25 5 4 15 17 20 28 5 12 18 36 29 52 11 17 24 39 30 50 6 11 24 43 41 70 16 28 35 61 42 75 6 14 17 29 24 33 7 4 13 16 13 25 0 10 5 23 11 29 12 12 25 33 64 108 14 28 35 64 45 80 11 17 24 39 30 50 6 11 20 36 32 55 11 19 31 54 43 77 13 23 32 55 44 71 11 16 25 40 31 53 6 13 19 38 29 54 19 29 40 65 77 135 11 19 25 40 32 48 6 7 12 19 12 26 0 8 7 19 15 26 8 7 15 19 15 26 0 8 13 33 30 56 17 22 30 47 30 55 0 7 4 13 9 13 5 0 14 12 20 28 6 15 20 41 31 57 11 17 24 39 29 50 5 11 20 36 33 55 13 19 34 55 47 80 12 25 31 59 42 75 10 17 23 39 29 50 6 11 24 43 41 70 16 28 35 61 42 75 6 14 15 27 19 30 4 3 12 17 18 30 13 32 54 103 91 158 16 24 29 49 29 57 0 8 5 17 11 20 5 4 15 17 20 28 5 12 19 38 31 57 11 19 31 54 43 77 13 23 32 55 44 71 11 16 25 40 31 53 6 13 19 38 30 54 11 17 23 37 27 45 6 14 84 148 104 180 5 8 13 24 18 35 5 11 21 37 35 58 14 21 26 46 26 56 0 10 7 24 15 31 8 7 15 27 15 44 0 46 11 76 26 76 8 0 14 10 14 25 0 14 -3 25 -8 25 -9 0 -32 72 -32 100 0 18 -22 77 -41 110 -5 8 -14 24 -19 35 -6 11 -19 34 -29 50 -11 17 -30 50 -42 75 -13 25 -35 63 -49 85 -14 22 -31 49 -38 60 -7 11 -17 32 -23 48 -6 15 -15 27 -20 27 -5 0 -9 6 -9 13 0 8 -13 33 -30 55 -16 23 -30 48 -30 56 0 8 -5 18 -11 21 -5 4 -14 17 -20 28 -9 23 -14 31 -61 105 -16 24 -28 47 -28 52 0 5 -12 26 -26 47 -14 21 -30 47 -35 58 -5 11 -18 34 -29 50 -11 17 -24 39 -29 51 -8 19 -76 136 -101 174 -6 8 -15 24 -20 35 -6 11 -19 34 -29 50 -11 17 -30 50 -42 75 -13 25 -36 64 -51 86 -15 23 -28 46 -28 51 0 6 -13 28 -29 50 -16 22 -32 49 -35 61 -4 12 -12 22 -17 22 -5 0 -9 9 -9 19 0 11 -5 23 -11 26 -5 4 -15 17 -20 28 -5 12 -18 36 -29 52 -11 17 -25 41 -30 55 -6 13 -14 27 -18 30 -4 3 -17 25 -30 50 -13 25 -32 59 -42 75 -11 17 -24 39 -30 50 -27 53 -62 110 -75 125 -8 9 -15 23 -15 31 0 8 -5 20 -11 26 -11 11 -26 36 -49 78 -6 11 -19 34 -30 50 -11 17 -25 41 -30 55 -6 13 -14 27 -18 30 -4 3 -17 25 -30 50 -13 25 -32 59 -42 75 -11 17 -22 36 -25 43 -12 29 -16 38 -28 57 -7 11 -24 38 -37 60 -14 23 -31 50 -38 60 -6 11 -17 29 -22 40 -6 11 -19 34 -30 50 -10 17 -30 53 -44 82 -14 28 -29 53 -33 55 -5 1 -19 25 -33 51 -36 70 -46 87 -59 100 -6 6 -11 17 -11 24 0 6 -12 29 -26 50 -14 21 -30 47 -35 58 -5 11 -18 34 -29 50 -11 17 -25 42 -31 58 -6 15 -15 27 -20 27 -5 0 -9 6 -9 13 0 8 -13 33 -30 55 -16 23 -30 48 -30 56 0 7 -7 19 -15 26 -8 7 -15 16 -15 21 0 4 -18 35 -40 68 -39 59 -145 151 -173 151 -8 0 -20 7 -27 15 -7 8 -25 15 -40 15 -39 0 -60 9 -60 26 0 12 -311 14 -2097 14 -1153 0 -2093 -3 -2090 -7z m1787 -1343 c6 -9 9 -240 7 -595 l-2 -580 -905 0 -905 0 -3 585 c-2 544 -1 586 15 598 14 10 200 12 900 10 773 -3 885 -5 893 -18z m1050 10 c324 -26 369 -30 435 -40 230 -37 559 -126 663 -179 9 -5 35 -17 57 -27 55 -24 103 -48 145 -72 19 -12 52 -30 73 -42 62 -33 226 -161 303 -236 63 -61 209 -244 227 -284 4 -8 16 -28 26 -45 28 -42 73 -139 104 -220 37 -98 45 -123 56 -165 7 -25 16 -67 21 -95 4 -27 12 -68 18 -90 5 -22 16 -115 22 -207 19 -243 -3 -521 -56 -733 -25 -95 -46 -167 -61 -202 -7 -17 -13 -36 -13 -41 0 -6 -7 -23 -14 -39 -8 -15 -30 -59 -48 -98 -48 -99 -135 -235 -189 -295 -160 -178 -291 -287 -459 -383 -74 -42 -207 -103 -305 -139 -84 -32 -111 -40 -151 -48 -22 -5 -51 -13 -65 -18 -38 -15 -267 -62 -334 -69 -22 -2 -92 -10 -155 -19 -93 -12 -220 -14 -670 -12 l-555 3 -3 620 c-1 341 0 630 3 643 l5 22 378 0 c207 1 397 5 422 10 25 6 65 14 90 19 59 12 140 43 198 77 65 38 152 129 181 189 13 28 28 58 33 68 5 10 13 39 18 65 6 26 15 72 21 102 13 62 6 197 -11 250 -39 115 -130 243 -195 271 -11 5 -33 18 -50 29 -16 11 -37 23 -45 26 -8 3 -28 12 -45 19 -146 64 -398 95 -766 95 -198 0 -228 2 -233 16 -11 29 -7 1244 4 1265 10 18 25 19 398 19 213 0 448 -5 522 -10z m-1052 -1312 c9 -9 12 -488 12 -2094 0 -1145 -3 -2089 -6 -2098 -6 -14 -95 -16 -904 -16 -531 0 -901 4 -904 9 -4 5 -6 951 -6 2101 0 1150 2 2096 6 2101 9 15 1787 12 1802 -3z"/>
<path d="M2612 6142 c-59 -49 -72 -79 -72 -163 0 -69 3 -80 30 -117 35 -48 100 -82 159 -82 79 0 171 69 171 128 0 20 -5 22 -49 22 -44 0 -52 -4 -71 -30 -26 -36 -70 -40 -102 -10 -18 17 -22 31 -22 86 0 60 3 69 28 90 36 32 61 30 94 -5 25 -27 57 -36 110 -32 18 1 15 42 -7 75 -34 52 -68 66 -156 66 -72 -1 -83 -3 -113 -28z"/>
<path d="M2967 6163 c-9 -8 -9 -320 -1 -351 6 -21 12 -23 58 -20 l51 3 5 55 c6 68 14 80 49 80 40 0 69 -36 73 -90 l3 -45 53 -3 c48 -3 52 -1 53 20 4 62 -5 105 -27 135 -19 25 -21 34 -11 40 36 21 48 92 22 129 -29 42 -75 54 -202 54 -66 0 -123 -3 -126 -7z m231 -114 c2 -19 -3 -28 -23 -37 -53 -24 -95 -10 -95 33 0 32 9 36 65 33 45 -3 50 -5 53 -29z"/>
<path d="M3394 6157 c-2 -7 -3 -91 -2 -187 l3 -175 150 0 150 0 3 38 3 37 -80 0 c-95 0 -111 5 -111 35 0 28 17 35 85 35 58 0 79 14 73 52 -3 20 -9 23 -58 26 -86 4 -100 9 -100 37 0 24 2 25 78 25 42 0 82 4 88 8 17 11 24 54 12 69 -15 19 -286 19 -294 0z"/>
<path d="M3829 6150 c-66 -31 -85 -80 -54 -141 15 -29 15 -31 -10 -60 -29 -36 -31 -47 -8 -93 43 -91 230 -98 287 -11 22 34 20 84 -5 111 -19 20 -20 25 -6 64 19 56 11 86 -28 116 -47 35 -117 41 -176 14z m96 -62 c53 -24 15 -87 -44 -71 -27 7 -29 57 -3 72 21 13 17 13 47 -1z m6 -138 c28 -15 27 -76 -2 -85 -55 -18 -95 25 -65 70 18 27 36 31 67 15z"/>
</g>
</svg>
